<svg xmlns="http://www.w3.org/2000/svg" xmlns:xlink="http://www.w3.org/1999/xlink" width="1500" zoomAndPan="magnify" viewBox="0 0 1125 374.999991" height="500" preserveAspectRatio="xMidYMid meet" version="1.0"><defs><g/></defs><rect x="-112.5" width="1350" fill="#ffffff" y="-37.499999" height="449.999989" fill-opacity="1"/><rect x="-112.5" width="1350" fill="#f6f6f6" y="-37.499999" height="449.999989" fill-opacity="1"/><g fill="#000000" fill-opacity="1"><g transform="translate(109.027628, 199.880946)"><g><path d="M 35.53125 -118.1875 L 35.53125 0 L 8.59375 0 L 8.59375 -118.1875 Z M 35.53125 -118.1875 "/></g></g></g><g fill="#000000" fill-opacity="1"><g transform="translate(153.140164, 199.880946)"><g><path d="M 8.59375 0 L 8.59375 -73.5 L 33.953125 -73.5 L 33.953125 -65.765625 L 34.234375 -65.765625 C 40.828125 -72.347656 47.847656 -75.640625 55.296875 -75.640625 C 58.929688 -75.640625 62.535156 -75.160156 66.109375 -74.203125 C 69.691406 -73.253906 73.128906 -71.773438 76.421875 -69.765625 C 79.722656 -67.765625 82.398438 -64.925781 84.453125 -61.25 C 86.503906 -57.570312 87.53125 -53.296875 87.53125 -48.421875 L 87.53125 0 L 62.171875 0 L 62.171875 -41.546875 C 62.171875 -45.367188 60.953125 -48.710938 58.515625 -51.578125 C 56.085938 -54.441406 52.914062 -55.875 49 -55.875 C 45.175781 -55.875 41.710938 -54.390625 38.609375 -51.421875 C 35.503906 -48.460938 33.953125 -45.171875 33.953125 -41.546875 L 33.953125 0 Z M 8.59375 0 "/></g></g></g><g fill="#000000" fill-opacity="1"><g transform="translate(247.810241, 199.880946)"><g><path d="M 12.890625 -73.5 L 12.890625 -100.859375 L 38.25 -100.859375 L 38.25 -73.5 L 53.71875 -73.5 L 53.71875 -54.15625 L 38.25 -54.15625 L 38.25 -30.796875 C 38.25 -24.015625 40.160156 -20.625 43.984375 -20.625 C 44.941406 -20.625 45.941406 -20.816406 46.984375 -21.203125 C 48.035156 -21.585938 48.847656 -21.96875 49.421875 -22.34375 L 50.28125 -22.921875 L 56.59375 -2.4375 C 51.144531 0.625 44.9375 2.15625 37.96875 2.15625 C 33.1875 2.15625 29.078125 1.320312 25.640625 -0.34375 C 22.203125 -2.019531 19.597656 -4.265625 17.828125 -7.078125 C 16.066406 -9.898438 14.800781 -12.863281 14.03125 -15.96875 C 13.269531 -19.070312 12.890625 -22.394531 12.890625 -25.9375 L 12.890625 -54.15625 L 2.296875 -54.15625 L 2.296875 -73.5 Z M 12.890625 -73.5 "/></g></g></g><g fill="#000000" fill-opacity="1"><g transform="translate(304.383121, 199.880946)"><g><path d="M 82.953125 -33.234375 L 29.65625 -33.234375 C 29.65625 -28.078125 31.328125 -24.253906 34.671875 -21.765625 C 38.015625 -19.285156 41.644531 -18.046875 45.5625 -18.046875 C 49.664062 -18.046875 52.910156 -18.59375 55.296875 -19.6875 C 57.679688 -20.789062 60.40625 -22.96875 63.46875 -26.21875 L 81.8125 -17.046875 C 74.164062 -4.242188 61.460938 2.15625 43.703125 2.15625 C 32.617188 2.15625 23.113281 -1.640625 15.1875 -9.234375 C 7.257812 -16.828125 3.296875 -25.972656 3.296875 -36.671875 C 3.296875 -47.367188 7.257812 -56.535156 15.1875 -64.171875 C 23.113281 -71.816406 32.617188 -75.640625 43.703125 -75.640625 C 55.347656 -75.640625 64.820312 -72.269531 72.125 -65.53125 C 79.4375 -58.800781 83.09375 -49.179688 83.09375 -36.671875 C 83.09375 -34.953125 83.046875 -33.804688 82.953125 -33.234375 Z M 30.375 -47.28125 L 58.3125 -47.28125 C 57.738281 -51.101562 56.234375 -54.039062 53.796875 -56.09375 C 51.359375 -58.144531 48.226562 -59.171875 44.40625 -59.171875 C 40.207031 -59.171875 36.863281 -58.070312 34.375 -55.875 C 31.894531 -53.675781 30.5625 -50.8125 30.375 -47.28125 Z M 30.375 -47.28125 "/></g></g></g><g fill="#000000" fill-opacity="1"><g transform="translate(390.746288, 199.880946)"><g><path d="M 5.296875 18.046875 L 26.078125 7.875 C 29.898438 14.175781 36.535156 17.328125 45.984375 17.328125 C 50.378906 17.328125 54.460938 15.914062 58.234375 13.09375 C 62.003906 10.28125 63.890625 5.960938 63.890625 0.140625 L 63.890625 -5.296875 C 59.398438 -0.328125 51.378906 2.15625 39.828125 2.15625 C 29.222656 2.15625 20.484375 -1.59375 13.609375 -9.09375 C 6.734375 -16.59375 3.296875 -25.785156 3.296875 -36.671875 C 3.296875 -47.566406 6.734375 -56.785156 13.609375 -64.328125 C 20.484375 -71.867188 29.222656 -75.640625 39.828125 -75.640625 C 49.285156 -75.640625 57.164062 -72.726562 63.46875 -66.90625 L 63.890625 -66.90625 L 63.890625 -73.5 L 89.25 -73.5 L 89.25 2 C 89.25 13.9375 85.285156 23.148438 77.359375 29.640625 C 69.429688 36.140625 58.972656 39.390625 45.984375 39.390625 C 24.972656 39.390625 11.410156 32.273438 5.296875 18.046875 Z M 35.171875 -49.140625 C 31.878906 -45.890625 30.234375 -41.734375 30.234375 -36.671875 C 30.234375 -31.609375 31.804688 -27.476562 34.953125 -24.28125 C 38.109375 -21.082031 42.265625 -19.484375 47.421875 -19.484375 C 52.390625 -19.484375 56.472656 -21.101562 59.671875 -24.34375 C 62.867188 -27.59375 64.46875 -31.703125 64.46875 -36.671875 C 64.46875 -41.734375 62.816406 -45.890625 59.515625 -49.140625 C 56.222656 -52.390625 52.191406 -54.015625 47.421875 -54.015625 C 42.546875 -54.015625 38.460938 -52.390625 35.171875 -49.140625 Z M 35.171875 -49.140625 "/></g></g></g><g fill="#000000" fill-opacity="1"><g transform="translate(488.567224, 199.880946)"><g><path d="M 8.59375 0 L 8.59375 -73.5 L 33.953125 -73.5 L 33.953125 -62.890625 L 34.234375 -62.890625 C 34.429688 -63.273438 34.742188 -63.753906 35.171875 -64.328125 C 35.597656 -64.898438 36.523438 -65.898438 37.953125 -67.328125 C 39.390625 -68.765625 40.921875 -70.054688 42.546875 -71.203125 C 44.171875 -72.347656 46.269531 -73.375 48.84375 -74.28125 C 51.425781 -75.1875 54.054688 -75.640625 56.734375 -75.640625 C 59.503906 -75.640625 62.222656 -75.257812 64.890625 -74.5 C 67.566406 -73.738281 69.523438 -72.972656 70.765625 -72.203125 L 72.78125 -71.0625 L 62.171875 -49.5625 C 59.023438 -52.238281 54.632812 -53.578125 49 -53.578125 C 45.9375 -53.578125 43.304688 -52.90625 41.109375 -51.5625 C 38.921875 -50.226562 37.367188 -48.609375 36.453125 -46.703125 C 35.546875 -44.796875 34.898438 -43.171875 34.515625 -41.828125 C 34.140625 -40.492188 33.953125 -39.445312 33.953125 -38.6875 L 33.953125 0 Z M 8.59375 0 "/></g></g></g><g fill="#000000" fill-opacity="1"><g transform="translate(559.89202, 199.880946)"><g><path d="M 13.609375 -9.09375 C 6.734375 -16.59375 3.296875 -25.785156 3.296875 -36.671875 C 3.296875 -47.566406 6.734375 -56.785156 13.609375 -64.328125 C 20.484375 -71.867188 29.222656 -75.640625 39.828125 -75.640625 C 49.566406 -75.640625 57.585938 -72.582031 63.890625 -66.46875 L 63.890625 -73.5 L 89.25 -73.5 L 89.25 0 L 64.1875 0 L 64.1875 -8.3125 L 63.890625 -8.3125 C 57.585938 -1.332031 49.566406 2.15625 39.828125 2.15625 C 29.222656 2.15625 20.484375 -1.59375 13.609375 -9.09375 Z M 35.171875 -49.140625 C 31.878906 -45.890625 30.234375 -41.734375 30.234375 -36.671875 C 30.234375 -31.609375 31.804688 -27.476562 34.953125 -24.28125 C 38.109375 -21.082031 42.265625 -19.484375 47.421875 -19.484375 C 52.390625 -19.484375 56.472656 -21.101562 59.671875 -24.34375 C 62.867188 -27.59375 64.46875 -31.703125 64.46875 -36.671875 C 64.46875 -41.734375 62.816406 -45.890625 59.515625 -49.140625 C 56.222656 -52.390625 52.191406 -54.015625 47.421875 -54.015625 C 42.546875 -54.015625 38.460938 -52.390625 35.171875 -49.140625 Z M 35.171875 -49.140625 "/></g></g></g><g fill="#000000" fill-opacity="1"><g transform="translate(657.712957, 199.880946)"><g><path d="M 12.890625 -73.5 L 12.890625 -100.859375 L 38.25 -100.859375 L 38.25 -73.5 L 53.71875 -73.5 L 53.71875 -54.15625 L 38.25 -54.15625 L 38.25 -30.796875 C 38.25 -24.015625 40.160156 -20.625 43.984375 -20.625 C 44.941406 -20.625 45.941406 -20.816406 46.984375 -21.203125 C 48.035156 -21.585938 48.847656 -21.96875 49.421875 -22.34375 L 50.28125 -22.921875 L 56.59375 -2.4375 C 51.144531 0.625 44.9375 2.15625 37.96875 2.15625 C 33.1875 2.15625 29.078125 1.320312 25.640625 -0.34375 C 22.203125 -2.019531 19.597656 -4.265625 17.828125 -7.078125 C 16.066406 -9.898438 14.800781 -12.863281 14.03125 -15.96875 C 13.269531 -19.070312 12.890625 -22.394531 12.890625 -25.9375 L 12.890625 -54.15625 L 2.296875 -54.15625 L 2.296875 -73.5 Z M 12.890625 -73.5 "/></g></g></g><g fill="#000000" fill-opacity="1"><g transform="translate(714.285837, 199.880946)"><g><path d="M 82.953125 -33.234375 L 29.65625 -33.234375 C 29.65625 -28.078125 31.328125 -24.253906 34.671875 -21.765625 C 38.015625 -19.285156 41.644531 -18.046875 45.5625 -18.046875 C 49.664062 -18.046875 52.910156 -18.59375 55.296875 -19.6875 C 57.679688 -20.789062 60.40625 -22.96875 63.46875 -26.21875 L 81.8125 -17.046875 C 74.164062 -4.242188 61.460938 2.15625 43.703125 2.15625 C 32.617188 2.15625 23.113281 -1.640625 15.1875 -9.234375 C 7.257812 -16.828125 3.296875 -25.972656 3.296875 -36.671875 C 3.296875 -47.367188 7.257812 -56.535156 15.1875 -64.171875 C 23.113281 -71.816406 32.617188 -75.640625 43.703125 -75.640625 C 55.347656 -75.640625 64.820312 -72.269531 72.125 -65.53125 C 79.4375 -58.800781 83.09375 -49.179688 83.09375 -36.671875 C 83.09375 -34.953125 83.046875 -33.804688 82.953125 -33.234375 Z M 30.375 -47.28125 L 58.3125 -47.28125 C 57.738281 -51.101562 56.234375 -54.039062 53.796875 -56.09375 C 51.359375 -58.144531 48.226562 -59.171875 44.40625 -59.171875 C 40.207031 -59.171875 36.863281 -58.070312 34.375 -55.875 C 31.894531 -53.675781 30.5625 -50.8125 30.375 -47.28125 Z M 30.375 -47.28125 "/></g></g></g><g fill="#000000" fill-opacity="1"><g transform="translate(800.649042, 199.880946)"><g><path d="M 32.515625 -73.5 L 32.515625 -38.53125 C 32.515625 -31.28125 33.613281 -26.125 35.8125 -23.0625 C 38.007812 -20.007812 41.734375 -18.484375 46.984375 -18.484375 C 52.242188 -18.484375 55.972656 -20.007812 58.171875 -23.0625 C 60.367188 -26.125 61.46875 -31.28125 61.46875 -38.53125 L 61.46875 -73.5 L 86.8125 -73.5 L 86.8125 -32.375 C 86.8125 -20.15625 83.632812 -11.34375 77.28125 -5.9375 C 70.9375 -0.539062 60.835938 2.15625 46.984375 2.15625 C 33.140625 2.15625 23.039062 -0.539062 16.6875 -5.9375 C 10.332031 -11.34375 7.15625 -20.15625 7.15625 -32.375 L 7.15625 -73.5 Z M 32.515625 -73.5 "/></g></g></g><g fill="#000000" fill-opacity="1"><g transform="translate(894.602998, 199.880946)"><g><path d="M 8.59375 0 L 8.59375 -73.5 L 33.953125 -73.5 L 33.953125 -62.890625 L 34.234375 -62.890625 C 34.429688 -63.273438 34.742188 -63.753906 35.171875 -64.328125 C 35.597656 -64.898438 36.523438 -65.898438 37.953125 -67.328125 C 39.390625 -68.765625 40.921875 -70.054688 42.546875 -71.203125 C 44.171875 -72.347656 46.269531 -73.375 48.84375 -74.28125 C 51.425781 -75.1875 54.054688 -75.640625 56.734375 -75.640625 C 59.503906 -75.640625 62.222656 -75.257812 64.890625 -74.5 C 67.566406 -73.738281 69.523438 -72.972656 70.765625 -72.203125 L 72.78125 -71.0625 L 62.171875 -49.5625 C 59.023438 -52.238281 54.632812 -53.578125 49 -53.578125 C 45.9375 -53.578125 43.304688 -52.90625 41.109375 -51.5625 C 38.921875 -50.226562 37.367188 -48.609375 36.453125 -46.703125 C 35.546875 -44.796875 34.898438 -43.171875 34.515625 -41.828125 C 34.140625 -40.492188 33.953125 -39.445312 33.953125 -38.6875 L 33.953125 0 Z M 8.59375 0 "/></g></g></g><g fill="#000000" fill-opacity="1"><g transform="translate(965.927754, 199.880946)"><g><path d="M 24.921875 -30.65625 C 29.515625 -30.65625 33.410156 -29.054688 36.609375 -25.859375 C 39.804688 -22.660156 41.40625 -18.769531 41.40625 -14.1875 C 41.40625 -9.695312 39.804688 -5.847656 36.609375 -2.640625 C 33.410156 0.554688 29.515625 2.15625 24.921875 2.15625 C 20.429688 2.15625 16.585938 0.554688 13.390625 -2.640625 C 10.191406 -5.847656 8.59375 -9.695312 8.59375 -14.1875 C 8.59375 -18.769531 10.191406 -22.660156 13.390625 -25.859375 C 16.585938 -29.054688 20.429688 -30.65625 24.921875 -30.65625 Z M 24.921875 -30.65625 "/></g></g></g><g fill="#000000" fill-opacity="1"><g transform="translate(451.660226, 292.688829)"><g><path d="M 20.671875 0.296875 C 17.242188 0.296875 14.148438 -0.457031 11.390625 -1.96875 C 8.640625 -3.488281 6.484375 -5.59375 4.921875 -8.28125 C 3.359375 -10.96875 2.578125 -13.976562 2.578125 -17.3125 C 2.578125 -20.644531 3.359375 -23.65625 4.921875 -26.34375 C 6.484375 -29.03125 8.648438 -31.128906 11.421875 -32.640625 C 14.191406 -34.160156 17.296875 -34.921875 20.734375 -34.921875 C 23.304688 -34.921875 25.675781 -34.492188 27.84375 -33.640625 C 30.019531 -32.785156 31.867188 -31.53125 33.390625 -29.875 L 31.0625 -27.546875 C 28.363281 -30.285156 24.953125 -31.65625 20.828125 -31.65625 C 18.085938 -31.65625 15.597656 -31.03125 13.359375 -29.78125 C 11.117188 -28.53125 9.363281 -26.816406 8.09375 -24.640625 C 6.820312 -22.460938 6.1875 -20.019531 6.1875 -17.3125 C 6.1875 -14.601562 6.820312 -12.160156 8.09375 -9.984375 C 9.363281 -7.816406 11.117188 -6.101562 13.359375 -4.84375 C 15.597656 -3.59375 18.085938 -2.96875 20.828125 -2.96875 C 24.984375 -2.96875 28.394531 -4.351562 31.0625 -7.125 L 33.390625 -4.796875 C 31.867188 -3.148438 30.007812 -1.890625 27.8125 -1.015625 C 25.625 -0.140625 23.242188 0.296875 20.671875 0.296875 Z M 20.671875 0.296875 "/></g></g></g><g fill="#000000" fill-opacity="1"><g transform="translate(493.386253, 292.688829)"><g><path d="M 20.78125 0.296875 C 17.34375 0.296875 14.226562 -0.46875 11.4375 -2 C 8.65625 -3.53125 6.484375 -5.628906 4.921875 -8.296875 C 3.359375 -10.972656 2.578125 -13.976562 2.578125 -17.3125 C 2.578125 -20.644531 3.359375 -23.644531 4.921875 -26.3125 C 6.484375 -28.988281 8.65625 -31.09375 11.4375 -32.625 C 14.226562 -34.15625 17.34375 -34.921875 20.78125 -34.921875 C 24.207031 -34.921875 27.296875 -34.160156 30.046875 -32.640625 C 32.804688 -31.128906 34.976562 -29.03125 36.5625 -26.34375 C 38.144531 -23.65625 38.9375 -20.644531 38.9375 -17.3125 C 38.9375 -13.976562 38.144531 -10.96875 36.5625 -8.28125 C 34.976562 -5.59375 32.804688 -3.488281 30.046875 -1.96875 C 27.296875 -0.457031 24.207031 0.296875 20.78125 0.296875 Z M 20.78125 -2.96875 C 23.507812 -2.96875 25.976562 -3.582031 28.1875 -4.8125 C 30.40625 -6.050781 32.140625 -7.765625 33.390625 -9.953125 C 34.640625 -12.148438 35.265625 -14.601562 35.265625 -17.3125 C 35.265625 -20.019531 34.640625 -22.46875 33.390625 -24.65625 C 32.140625 -26.851562 30.40625 -28.566406 28.1875 -29.796875 C 25.976562 -31.035156 23.507812 -31.65625 20.78125 -31.65625 C 18.039062 -31.65625 15.554688 -31.035156 13.328125 -29.796875 C 11.109375 -28.566406 9.363281 -26.851562 8.09375 -24.65625 C 6.820312 -22.46875 6.1875 -20.019531 6.1875 -17.3125 C 6.1875 -14.601562 6.820312 -12.148438 8.09375 -9.953125 C 9.363281 -7.765625 11.109375 -6.050781 13.328125 -4.8125 C 15.554688 -3.582031 18.039062 -2.96875 20.78125 -2.96875 Z M 20.78125 -2.96875 "/></g></g></g><g fill="#000000" fill-opacity="1"><g transform="translate(541.044074, 292.688829)"><g><path d="M 34.578125 -34.625 L 34.578125 0 L 31.5625 0 L 9.296875 -28.09375 L 9.296875 0 L 5.640625 0 L 5.640625 -34.625 L 8.65625 -34.625 L 30.96875 -6.53125 L 30.96875 -34.625 Z M 34.578125 -34.625 "/></g></g></g><g fill="#000000" fill-opacity="1"><g transform="translate(587.416672, 292.688829)"><g><path d="M 30.03125 -17.3125 L 33.546875 -17.3125 L 33.546875 -4.109375 C 31.921875 -2.691406 30.003906 -1.601562 27.796875 -0.84375 C 25.585938 -0.0820312 23.265625 0.296875 20.828125 0.296875 C 17.359375 0.296875 14.238281 -0.457031 11.46875 -1.96875 C 8.707031 -3.488281 6.535156 -5.59375 4.953125 -8.28125 C 3.367188 -10.96875 2.578125 -13.976562 2.578125 -17.3125 C 2.578125 -20.644531 3.367188 -23.65625 4.953125 -26.34375 C 6.535156 -29.03125 8.707031 -31.128906 11.46875 -32.640625 C 14.238281 -34.160156 17.375 -34.921875 20.875 -34.921875 C 23.507812 -34.921875 25.929688 -34.5 28.140625 -33.65625 C 30.359375 -32.820312 32.222656 -31.578125 33.734375 -29.921875 L 31.46875 -27.609375 C 28.726562 -30.304688 25.25 -31.65625 21.03125 -31.65625 C 18.21875 -31.65625 15.679688 -31.035156 13.421875 -29.796875 C 11.171875 -28.566406 9.398438 -26.851562 8.109375 -24.65625 C 6.828125 -22.46875 6.1875 -20.019531 6.1875 -17.3125 C 6.1875 -14.601562 6.828125 -12.160156 8.109375 -9.984375 C 9.398438 -7.816406 11.164062 -6.101562 13.40625 -4.84375 C 15.644531 -3.59375 18.164062 -2.96875 20.96875 -2.96875 C 24.53125 -2.96875 27.550781 -3.859375 30.03125 -5.640625 Z M 30.03125 -17.3125 "/></g></g></g><g fill="#000000" fill-opacity="1"><g transform="translate(631.812007, 292.688829)"><g><path d="M 20.78125 0.296875 C 17.34375 0.296875 14.226562 -0.46875 11.4375 -2 C 8.65625 -3.53125 6.484375 -5.628906 4.921875 -8.296875 C 3.359375 -10.972656 2.578125 -13.976562 2.578125 -17.3125 C 2.578125 -20.644531 3.359375 -23.644531 4.921875 -26.3125 C 6.484375 -28.988281 8.65625 -31.09375 11.4375 -32.625 C 14.226562 -34.15625 17.34375 -34.921875 20.78125 -34.921875 C 24.207031 -34.921875 27.296875 -34.160156 30.046875 -32.640625 C 32.804688 -31.128906 34.976562 -29.03125 36.5625 -26.34375 C 38.144531 -23.65625 38.9375 -20.644531 38.9375 -17.3125 C 38.9375 -13.976562 38.144531 -10.96875 36.5625 -8.28125 C 34.976562 -5.59375 32.804688 -3.488281 30.046875 -1.96875 C 27.296875 -0.457031 24.207031 0.296875 20.78125 0.296875 Z M 20.78125 -2.96875 C 23.507812 -2.96875 25.976562 -3.582031 28.1875 -4.8125 C 30.40625 -6.050781 32.140625 -7.765625 33.390625 -9.953125 C 34.640625 -12.148438 35.265625 -14.601562 35.265625 -17.3125 C 35.265625 -20.019531 34.640625 -22.46875 33.390625 -24.65625 C 32.140625 -26.851562 30.40625 -28.566406 28.1875 -29.796875 C 25.976562 -31.035156 23.507812 -31.65625 20.78125 -31.65625 C 18.039062 -31.65625 15.554688 -31.035156 13.328125 -29.796875 C 11.109375 -28.566406 9.363281 -26.851562 8.09375 -24.65625 C 6.820312 -22.46875 6.1875 -20.019531 6.1875 -17.3125 C 6.1875 -14.601562 6.820312 -12.148438 8.09375 -9.953125 C 9.363281 -7.765625 11.109375 -6.050781 13.328125 -4.8125 C 15.554688 -3.582031 18.039062 -2.96875 20.78125 -2.96875 Z M 20.78125 -2.96875 "/></g></g></g></svg>